<?xml version="1.0" encoding="UTF-8" standalone="no"?>
<svg
   xmlns:dc="http://purl.org/dc/elements/1.1/"
   xmlns:cc="http://creativecommons.org/ns#"
   xmlns:rdf="http://www.w3.org/1999/02/22-rdf-syntax-ns#"
   xmlns:svg="http://www.w3.org/2000/svg"
   xmlns="http://www.w3.org/2000/svg"
   xmlns:sodipodi="http://sodipodi.sourceforge.net/DTD/sodipodi-0.dtd"
   xmlns:inkscape="http://www.inkscape.org/namespaces/inkscape"
   viewBox="0 0 40 40"
   id="svg2"
   version="1.1"
   inkscape:version="0.91 r13725"
   sodipodi:docname="grid-selection-checked.svg">
  <metadata
     id="metadata16">
    <rdf:RDF>
      <cc:Work
         rdf:about="">
        <dc:format>image/svg+xml</dc:format>
        <dc:type
           rdf:resource="http://purl.org/dc/dcmitype/StillImage" />
      </cc:Work>
    </rdf:RDF>
  </metadata>
  <defs
     id="defs14" />
  <sodipodi:namedview
     pagecolor="#ffffff"
     bordercolor="#666666"
     borderopacity="1"
     objecttolerance="10"
     gridtolerance="10"
     guidetolerance="10"
     inkscape:pageopacity="0"
     inkscape:pageshadow="2"
     inkscape:window-width="1680"
     inkscape:window-height="1023"
     id="namedview12"
     showgrid="false"
     inkscape:zoom="5.9"
     inkscape:cx="20"
     inkscape:cy="20"
     inkscape:window-x="1920"
     inkscape:window-y="0"
     inkscape:window-maximized="1"
     inkscape:current-layer="svg2" />
  <g
     id="g4147">
    <rect
       width="37.5"
       x="1.429"
       y="1.4288156"
       rx="1"
       height="37.5"
       style="fill:#f9f9f9"
       id="rect6" />
    <path
       style="fill:#aaaaaa"
       d="M 5,0 C 2.23,0 0,2.23 0,5 l 0,30 c 0,2.77 2.23,5 5,5 l 30,0 c 2.77,0 5,-2.23 5,-5 L 40,5 C 40,2.23 37.77,0 35,0 Z m 0,2.0536 30,0 c 1.385,0 3.035714,1.5614 3.035714,2.9464 l 0,30 c 0,1.385 -1.650714,3.0357 -3.035714,3.0357 l -30,0 C 3.615,38.0357 2.0535714,36.385 2.0535714,35 l 0,-30 C 2.0535714,3.615 3.615,2.0536 5,2.0536 Z"
       id="path8"
       inkscape:connector-curvature="0" />
    <path
       style="color:#000000;line-height:normal;fill:#37a9d6;fill-opacity:1"
       d="m 29.13352,9.7958 c -0.914683,0.025 -1.818308,0.4057 -2.463877,1.0665 L 16.596417,20.454 13.14087,16.5818 c -1.229737,-1.64 -3.926399,-1.8163 -5.3516312,-0.35 -1.4252323,1.4662 -1.2275153,4.2135 0.3923797,5.452 l 5.9579565,6.3997 c 2.342312,2.3423 3.397624,2.029 5.762435,-0.3357 0,0 8.126148,-9.7758 12.889022,-13.08 1.052818,-0.998 1.492196,-1.2755 0.94419,-2.6305 -0.548004,-1.355 -3.164817,-2.29 -4.601702,-2.2415 z"
       id="path10"
       inkscape:connector-curvature="0" />
  </g>
</svg>
